<?xml version="1.0" standalone="no"?>
<!DOCTYPE svg PUBLIC "-//W3C//DTD SVG 20010904//EN"
 "http://www.w3.org/TR/2001/REC-SVG-20010904/DTD/svg10.dtd">
<svg version="1.0" xmlns="http://www.w3.org/2000/svg"
 width="1024.000000pt" height="1024.000000pt" viewBox="0 0 1024.000000 1024.000000"
 preserveAspectRatio="xMidYMid meet">
<metadata>
Created by potrace 1.14, written by Peter Selinger 2001-2017
</metadata>
<g transform="translate(0.000000,1024.000000) scale(0.100000,-0.100000)"
fill="#000000" stroke="none">
<path d="M0 5120 l0 -5120 5120 0 5120 0 0 5120 0 5120 -5120 0 -5120 0 0
-5120z m5166 4113 c5 -10 9 -428 9 -930 0 -501 3 -914 6 -917 3 -4 596 -6
1318 -6 1192 0 1312 -1 1318 -16 3 -9 6 -676 7 -1482 1 -1177 -2 -1483 -12
-1547 -21 -125 -70 -310 -108 -410 -70 -181 -242 -455 -425 -680 -128 -157
-282 -316 -550 -570 -180 -171 -530 -456 -790 -646 -168 -122 -233 -172 -343
-264 -97 -81 -246 -201 -330 -263 -59 -45 -71 -50 -89 -40 -37 20 -315 227
-487 363 -63 50 -182 140 -264 199 -149 107 -410 308 -476 366 -19 17 -93 76
-165 132 -182 142 -259 213 -399 367 -378 417 -515 597 -635 838 -86 170 -119
272 -161 483 -52 264 -53 285 -55 1767 -3 1100 0 1384 10 1393 8 6 91 9 241 6
282 -4 391 3 422 30 12 10 30 19 39 19 10 0 23 10 29 23 6 13 15 23 20 23 5
-1 9 2 9 7 0 4 17 24 38 45 20 20 37 42 37 47 0 6 7 10 15 10 8 0 15 5 15 11
0 14 91 95 102 91 4 -1 8 5 8 13 0 8 7 15 15 15 8 0 15 6 15 13 0 18 34 49 43
40 4 -3 7 -1 7 6 0 19 272 281 292 281 5 0 11 7 14 15 4 8 17 15 30 15 13 0
24 5 24 11 0 5 -6 7 -12 3 -7 -4 10 16 37 44 28 28 57 52 66 52 9 0 19 10 23
23 3 13 16 29 28 36 13 6 32 25 43 41 11 16 31 35 44 42 14 7 48 37 76 66 28
28 56 52 61 52 6 0 24 20 42 45 17 25 39 45 47 45 8 0 21 11 27 25 6 14 15 25
20 25 5 0 21 11 36 25 15 14 39 31 55 38 15 6 27 18 27 25 0 7 8 16 17 19 23
9 63 49 63 63 0 5 8 10 18 10 19 0 54 35 45 44 -4 3 8 9 26 12 34 7 52 24 25
24 -12 0 -6 9 19 33 65 57 95 77 119 78 12 0 17 3 11 6 -20 7 -15 23 6 23 13
0 21 8 23 23 2 13 16 29 38 39 19 10 35 22 35 27 0 5 3 13 8 17 4 4 7 -25 7
-64 0 -51 -4 -72 -13 -72 -8 0 -11 -13 -9 -44 3 -30 -3 -56 -17 -84 -12 -23
-21 -49 -22 -59 0 -11 -3 -13 -6 -5 -9 22 -33 -7 -33 -40 0 -22 -7 -33 -30
-46 -20 -12 -30 -25 -30 -41 0 -27 -45 -81 -67 -81 -7 0 -13 -9 -13 -20 0 -20
-22 -46 -56 -66 -10 -6 -21 -19 -22 -29 -2 -10 -19 -33 -37 -51 -18 -18 -36
-45 -39 -61 -7 -31 -57 -93 -75 -93 -6 0 -11 -7 -11 -15 0 -11 11 -15 40 -15
29 0 40 4 40 15 0 11 11 15 40 15 27 0 40 4 40 13 0 8 11 19 25 25 14 7 28 19
31 27 4 8 12 15 20 15 10 0 14 12 14 40 0 36 3 40 25 40 22 0 25 4 25 34 0 38
12 46 71 46 39 0 39 0 39 -40 0 -22 -4 -40 -10 -40 -5 0 -10 -6 -10 -12 0 -7
-16 -24 -35 -38 -33 -24 -34 -27 -35 -93 0 -78 12 -97 59 -97 26 0 31 -4 31
-25 0 -14 5 -25 10 -25 6 0 10 -7 10 -16 0 -8 -4 -13 -9 -10 -5 3 -12 -2 -15
-11 -7 -16 11 -36 25 -27 12 7 19 -38 19 -122 0 -65 3 -81 15 -81 11 0 15 11
15 39 0 21 4 38 9 38 13 0 20 233 25 770 3 265 9 476 14 490 11 28 48 70 61
70 5 0 13 -8 17 -17z m-109 -235 c-2 -24 -4 -7 -4 37 0 44 2 63 4 43 2 -21 2
-57 0 -80z"/>
<path d="M4546 8181 c-4 -7 -5 -15 -2 -18 9 -9 19 4 14 18 -4 11 -6 11 -12 0z"/>
<path d="M4460 8090 c0 -5 5 -10 10 -10 6 0 10 5 10 10 0 6 -4 10 -10 10 -5 0
-10 -4 -10 -10z"/>
<path d="M4968 7960 c2 -22 8 -40 14 -40 12 0 6 73 -7 77 -7 2 -9 -12 -7 -37z"/>
<path d="M5051 7854 c0 -11 3 -14 6 -6 3 7 2 16 -1 19 -3 4 -6 -2 -5 -13z"/>
<path d="M4220 7850 c0 -5 5 -10 10 -10 6 0 10 5 10 10 0 6 -4 10 -10 10 -5 0
-10 -4 -10 -10z"/>
<path d="M4140 7770 c0 -5 5 -10 10 -10 6 0 10 5 10 10 0 6 -4 10 -10 10 -5 0
-10 -4 -10 -10z"/>
<path d="M4056 7704 c-18 -18 -18 -19 -2 -22 22 -5 29 2 24 24 -3 16 -4 16
-22 -2z"/>
<path d="M3490 7639 c0 -5 5 -7 10 -4 6 3 10 8 10 11 0 2 -4 4 -10 4 -5 0 -10
-5 -10 -11z"/>
<path d="M4578 7119 c-917 -3 -1671 -8 -1674 -12 -4 -4 -8 -708 -9 -1564 -1
-857 -5 -1604 -10 -1660 l-8 -102 244 -3 c565 -7 873 -15 876 -24 5 -14 1099
-12 1113 2 8 8 8 24 0 55 -5 24 -14 233 -20 464 -5 231 -12 432 -16 448 l-6
27 -420 0 c-258 0 -426 -4 -438 -10 -10 -5 -67 -87 -125 -182 -109 -175 -357
-550 -400 -604 l-23 -29 -312 -3 c-296 -3 -312 -2 -308 15 5 16 98 143 338
458 102 135 414 602 537 805 55 91 146 239 203 330 158 253 205 331 236 385
l27 51 -164 160 c-90 89 -209 203 -264 255 -100 95 -548 533 -591 579 -13 14
-23 29 -21 33 4 13 546 8 571 -5 34 -18 229 -202 539 -510 159 -159 293 -288
299 -288 5 0 180 170 389 377 208 207 391 384 406 394 24 14 67 17 306 21 152
3 277 1 277 -3 0 -20 -985 -1020 -1072 -1089 -16 -12 -28 -26 -28 -31 0 -11
77 -123 195 -284 44 -60 110 -153 147 -205 36 -52 83 -111 104 -131 46 -43 54
-53 96 -116 18 -27 36 -49 40 -51 19 -8 5 -40 -34 -75 -36 -32 -39 -37 -18
-31 14 4 27 11 28 15 2 5 10 9 18 9 8 0 14 5 14 10 0 6 6 10 14 10 8 0 22 10
30 22 9 12 16 19 16 14 0 -5 22 11 49 35 26 24 67 57 90 73 22 17 41 33 41 38
0 4 6 8 14 8 8 0 54 38 102 85 48 47 83 85 78 85 -21 0 -64 -25 -64 -37 0 -7
-7 -13 -15 -13 -8 0 -15 2 -15 4 0 3 36 41 81 86 44 45 79 83 77 84 -1 1 -12
8 -22 16 -18 13 -19 13 -14 -2 4 -10 1 -19 -9 -22 -9 -4 -17 1 -20 14 -3 11
-10 20 -15 20 -6 0 -5 7 2 15 7 8 21 15 31 15 29 0 45 33 41 84 -3 31 -9 46
-18 46 -8 0 -14 -9 -14 -20 0 -11 -4 -20 -9 -20 -11 0 -23 29 -16 40 6 10 -54
-3 -83 -19 -12 -6 -22 -16 -22 -21 0 -6 -7 -10 -15 -10 -8 0 -15 -4 -15 -10 0
-5 -4 -10 -10 -10 -5 0 -10 7 -10 15 0 8 5 15 10 15 6 0 10 6 10 14 0 7 11 22
25 32 14 10 25 22 25 26 0 9 76 94 157 176 35 35 63 67 63 70 1 4 12 16 26 27
14 11 35 29 46 40 15 14 22 16 25 8 3 -7 9 -13 15 -13 6 0 6 6 -2 15 -10 12
-9 16 4 21 10 4 15 13 12 21 -3 8 2 17 14 21 10 4 19 12 19 17 0 6 7 11 15 13
9 2 16 -2 16 -8 0 -6 4 -8 10 -5 6 4 5 13 -2 25 -15 24 9 60 25 38 6 -9 7 -8
3 4 -3 10 2 23 13 30 9 7 20 21 24 31 3 9 17 17 29 17 17 0 20 3 9 9 -11 7 12
36 98 121 61 62 111 114 111 115 0 5 116 118 221 217 97 91 155 140 354 300
50 40 81 73 83 87 l4 23 -559 -4 c-307 -1 -1308 -6 -2225 -9z m1262 -1894 c-7
-9 -15 -13 -18 -10 -3 2 1 11 8 20 7 9 15 13 18 10 3 -2 -1 -11 -8 -20z m-60
-49 c0 -3 -4 -8 -10 -11 -5 -3 -10 -1 -10 4 0 6 5 11 10 11 6 0 10 -2 10 -4z"/>
<path d="M7416 7084 c-23 -22 -20 -37 4 -22 11 7 20 18 20 25 0 17 -5 16 -24
-3z"/>
<path d="M7392 6918 c-16 -16 -15 -38 2 -38 8 0 14 10 14 25 0 29 0 29 -16 13z"/>
<path d="M7294 6864 c3 -9 6 -18 6 -21 0 -3 7 0 15 7 21 18 19 30 -6 30 -15 0
-19 -4 -15 -16z"/>
<path d="M7255 6810 c-3 -5 1 -10 9 -10 9 0 16 5 16 10 0 6 -4 10 -9 10 -6 0
-13 -4 -16 -10z"/>
<path d="M7060 6520 c0 -5 4 -10 9 -10 6 0 13 5 16 10 3 6 -1 10 -9 10 -9 0
-16 -4 -16 -10z"/>
<path d="M6700 6421 c0 -6 5 -13 10 -16 6 -3 10 1 10 9 0 9 -4 16 -10 16 -5 0
-10 -4 -10 -9z"/>
<path d="M6625 6330 c-3 -5 -1 -10 4 -10 6 0 11 5 11 10 0 6 -2 10 -4 10 -3 0
-8 -4 -11 -10z"/>
<path d="M6551 6304 c0 -11 3 -14 6 -6 3 7 2 16 -1 19 -3 4 -6 -2 -5 -13z"/>
<path d="M6570 6309 c0 -5 5 -7 10 -4 6 3 10 8 10 11 0 2 -4 4 -10 4 -5 0 -10
-5 -10 -11z"/>
<path d="M6455 6180 c-8 -13 -1 -24 14 -19 6 3 7 10 2 18 -6 10 -10 10 -16 1z"/>
<path d="M6560 6069 c0 -5 5 -7 10 -4 6 3 10 8 10 11 0 2 -4 4 -10 4 -5 0 -10
-5 -10 -11z"/>
<path d="M6601 6034 c0 -11 3 -14 6 -6 3 7 2 16 -1 19 -3 4 -6 -2 -5 -13z"/>
<path d="M6400 5984 c0 -14 3 -14 15 -4 8 7 15 14 15 16 0 2 -7 4 -15 4 -8 0
-15 -7 -15 -16z"/>
<path d="M6215 5950 c-3 -5 -1 -10 4 -10 6 0 11 5 11 10 0 6 -2 10 -4 10 -3 0
-8 -4 -11 -10z"/>
<path d="M6360 5930 c0 -5 9 -10 20 -10 11 0 20 5 20 10 0 6 -9 10 -20 10 -11
0 -20 -4 -20 -10z"/>
<path d="M7440 5910 c0 -14 -7 -33 -14 -43 -8 -10 -12 -26 -10 -35 2 -10 -15
-37 -42 -67 -25 -27 -76 -86 -113 -130 -38 -44 -81 -92 -97 -106 -16 -14 -58
-59 -94 -100 -36 -41 -123 -133 -195 -206 -71 -72 -170 -174 -220 -227 -49
-53 -130 -136 -179 -184 -50 -48 -160 -157 -245 -242 -161 -160 -271 -263
-336 -315 -101 -80 -161 -131 -168 -142 -4 -7 -12 -13 -17 -13 -8 0 -27 -15
-109 -89 -14 -13 -44 -35 -66 -50 -22 -14 -42 -29 -45 -32 -3 -4 -63 -16 -134
-27 -71 -12 -134 -26 -140 -32 -8 -8 -12 -188 -14 -607 -3 -492 -1 -594 10
-587 35 22 178 137 224 182 7 7 35 29 61 49 50 38 327 267 352 291 8 8 37 31
65 52 89 67 160 123 172 134 38 37 153 135 239 202 55 43 102 81 105 84 3 3
26 22 51 43 l46 37 339 6 c623 10 566 8 579 29 29 47 51 1936 25 2076 -11 59
-30 89 -30 49z"/>
<path d="M6220 5770 c0 -5 5 -10 10 -10 6 0 10 5 10 10 0 6 -4 10 -10 10 -5 0
-10 -4 -10 -10z"/>
<path d="M4564 5402 c-186 -328 -183 -317 -91 -308 34 3 146 8 250 12 103 3
189 9 191 13 10 16 -211 481 -228 481 -6 0 -61 -89 -122 -198z"/>
<path d="M5066 2908 c-3 -7 -7 -31 -10 -53 -2 -22 -8 -48 -12 -58 -4 -12 2
-25 20 -42 l26 -24 -6 23 c-4 17 0 27 13 35 10 6 12 11 6 11 -9 0 -13 18 -13
54 0 51 -15 84 -24 54z"/>
</g>
</svg>
